# xmcd CD database file
#
# Track frame offsets:
#	150
#	18286
#	32599
#	48714
#	66655
#	79390
#	100522
#	119120
#	147124
#	174234
#	195814
#	215391
#	239533
#
# Disc length: 3478 seconds
#
# Revision: 0
# Processed by: cddbd v1.5.2PL0 Copyright (c) Steve Scherf et al.
# Submitted via: CDex 1.70beta2
#
DISCID=b30d940d
DTITLE=MILANO JAZZ DANCE COMBO - MILANO JAZZ DANCE COMBO
DYEAR=2009
DGENRE=Jazz
TTITLE0=MUCH MORE feat. COLONEL RED
TTITLE1=DON'T CRY feat. DIONNE CHARLES
TTITLE2=FEELIN' GOOD feat. KATHARINE RUESTOW
TTITLE3=JUST IN TIME feat. ALICE RICCIARDI
TTITLE4=SAM BLUES
TTITLE5=GOODBYE feat. FELIX
TTITLE6=BROKEN ROSE feat. ROXIE RAY
TTITLE7=IPERBOLE
TTITLE8=PLEASE DON'T GO feat. KATHARINE RUESTOW
TTITLE9=TURN UP THE HEAT
TTITLE10=SWEET LOVE feat. DIONNE CHARLES
TTITLE11=BEAT UNDER MY SKIN feat. ROXIE RAY
TTITLE12=CHANGES feat. COLONEL RED
EXTD=YEAR: 2009
EXTT0=
EXTT1=
EXTT2=
EXTT3=
EXTT4=
EXTT5=
EXTT6=
EXTT7=
EXTT8=
EXTT9=
EXTT10=
EXTT11=
EXTT12=
PLAYORDER=
